<?xml version="1.0" encoding="UTF-8"?><svg xmlns="http://www.w3.org/2000/svg" width="600.98" height="473.72" xmlns:xlink="http://www.w3.org/1999/xlink" viewBox="0 0 600.98 473.72"><defs><style>.a`{fill:url(#t);}.aa{fill:url(#r);}.ab{fill:url(#y);}.ac{fill:url(#l);}.ad{fill:url(#u);}.ae{fill:url(#v);}.af{fill:url(#m);}.ag{fill:url(#f);}.ah{isolation:isolate;opacity:.24;}.ah,.ai{fill:#68e1fd;}.aj{fill:url(#p);}.ak{fill:url(#g);}.al{fill:#606161;}.am{fill:url(#i);}.an{fill:url(#h);}.ao{fill:url(#d);}.ap{fill:url(#e);}.aq{fill:url(#x);}.ar{fill:url(#s);}.as{fill:url(#n);}.at{fill:url(#w);}.au{fill:url(#j);}.av{fill:url(#o);}.aw{fill:url(#q);}.ax{fill:url(#k);}</style><linearGradient id="d" x1="920.94" y1="746.05" x2="810.73" y2="363.25" gradientTransform="translate(-356.13 999.82) scale(1 -1)" gradientUnits="userSpaceOnUse"><stop offset="0" stop-color="#010101" stop-opacity="0"/><stop offset=".95" stop-color="#010101"/></linearGradient><linearGradient id="e" x1="542.84" y1="603.21" x2="632.13" y2="603.21" xlink:href="#d"/><linearGradient id="f" x1="610.76" y1="618.37" x2="704.44" y2="627.19" xlink:href="#d"/><linearGradient id="g" x1="625.17" y1="881.32" x2="656.66" y2="881.32" gradientTransform="translate(-356.13 999.82) scale(1 -1)" gradientUnits="userSpaceOnUse"><stop offset="0" stop-color="#e5c6d6"/><stop offset=".42" stop-color="#ead4d0"/><stop offset="1" stop-color="#f0e9cb"/></linearGradient><linearGradient id="h" x1="739.89" y1="917.62" x2="640.7" y2="881.25" xlink:href="#d"/><linearGradient id="i" x1="667.09" y1="877.18" x2="575.25" y2="887.83" xlink:href="#d"/><linearGradient id="j" x1="551.37" y1="908.23" x2="641.54" y2="908.23" gradientTransform="translate(-356.13 999.82) scale(1 -1)" gradientUnits="userSpaceOnUse"><stop offset="0" stop-color="#fff" stop-opacity="0"/><stop offset=".95" stop-color="#fff"/></linearGradient><linearGradient id="k" x1="675.82" y1="768.57" x2="338.58" y2="711.26" xlink:href="#d"/><linearGradient id="l" x1="669.17" y1="848.41" x2="674.13" y2="674.28" xlink:href="#d"/><linearGradient id="m" x1="666.24" y1="870.96" x2="747.04" y2="870.96" xlink:href="#g"/><linearGradient id="n" x1="565.46" y1="910.21" x2="620" y2="910.21" xlink:href="#d"/><linearGradient id="o" x1="552.24" y1="924.17" x2="594.41" y2="924.17" xlink:href="#d"/><linearGradient id="p" x1="613.19" y1="755.12" x2="373.67" y2="677.24" xlink:href="#d"/><linearGradient id="q" x1="449.18" y1="661.26" x2="929.69" y2="889.02" xlink:href="#d"/><linearGradient id="r" x1="543.81" y1="674.12" x2="602.78" y2="674.12" xlink:href="#d"/><linearGradient id="s" x1="547.06" y1="766" x2="441.81" y2="848.65" xlink:href="#d"/><linearGradient id="t" x1="544.62" y1="718.44" x2="598.62" y2="638.36" xlink:href="#d"/><linearGradient id="u" x1="522.74" y1="646.48" x2="479.21" y2="728.03" xlink:href="#d"/><linearGradient id="v" x1="706.18" y1="822.53" x2="743.3" y2="822.53" xlink:href="#j"/><linearGradient id="w" x1="468.11" y1="716.98" x2="579.32" y2="701.02" xlink:href="#d"/><linearGradient id="x" x1="838.6" y1="677.72" x2="644.63" y2="274.35" xlink:href="#d"/><linearGradient id="y" x1="433.68" y1="662.2" x2="258.82" y2="312.47" xlink:href="#d"/></defs><g id="a"/><g id="b"><g id="c"><path class="ah" d="M553.33,462.17c-.94,.47-1.88,.94-2.82,1.37-18.12,8.26-38.47,10.06-58.4,10.17-87.21,.63-173.91-27.75-260.57-17.42-53.66,6.39-112.65,26.43-158.33-2.42-21.41-13.55-35.62-35.82-47.52-58.21-15.36-28.88-28.47-60.86-25.18-93.43,.41-4.04,1.08-8.05,2-12,7.6-33.89,31.71-62.86,57.07-87.32,28.3-27.36,60-52.61,78.87-87.09,15-27.25,21.65-59.7,43.26-82.05,60.78-63,200.36-25.63,264.17,13.35,41.29,25.25,74.72,65.72,84.47,113.12,6,29.32,3,60.2,11.58,88.9,13.51,45.44,54.64,81.1,58.75,128.3,2.97,34.19-16.76,69.23-47.35,84.73Z"/><path class="ah" d="M553.33,462.17c-.94,.47-1.88,.94-2.82,1.37-18.12,8.26-38.47,10.06-58.4,10.17-87.21,.63-173.91-27.75-260.57-17.42-53.66,6.39-112.65,26.43-158.33-2.42-21.41-13.55-35.62-35.82-47.52-58.21-15.36-28.88-28.47-60.86-25.18-93.43,.41-4.04,1.08-8.05,2-12,1.25-.5,2.52-.92,3.82-1.26,28.69-7.9,64.31,1.1,83.33,24.23,12.29,15,18.09,34.09,26.07,51.79s19.85,35.42,38.16,41.76c30,10.37,62.79-13.7,93.63-6.5,17.54,4.15,31.28,17.74,48.15,24.08,49.12,18.51,106.62-28.5,154.37-6.62,5.48,2.51,10.61,5.91,16.37,7.59,7.24,2.16,14.91,1.53,22.46,1.38,12.04-.27,24.08,.65,35.94,2.77,6.18,1.14,12.6,2.74,17.06,7.13,3.21,3.13,5.05,7.4,6.66,11.58,1.8,4.57,3.41,9.27,4.8,14.01Z"/><path class="ai" d="M485.69,299.97c-.74-21.86,4-43.49,8.95-64.79,20.93,18.63,42.28,37.79,55.69,62.34,5,9.15,8.82,19,14.8,27.5,7.35,10.48,17.67,18.62,24.73,29.29,13.49,20.38,12.59,49.24-2.15,68.74-1.34,2.04-3.19,3.69-5.37,4.78-2.8,1.17-6,.61-8.94-.12-25.85-6.42-47.81-25.79-58.37-50.11-11.42-26.29-28.32-47.38-29.34-77.63Z"/><path class="ao" d="M485.69,299.97c-.74-21.86,4-43.49,8.95-64.79,20.93,18.63,42.28,37.79,55.69,62.34,5,9.15,8.82,19,14.8,27.5,7.35,10.48,17.67,18.62,24.73,29.29,13.49,20.38,12.59,49.24-2.15,68.74-1.34,2.04-3.19,3.69-5.37,4.78-2.8,1.17-6,.61-8.94-.12-25.85-6.42-47.81-25.79-58.37-50.11-11.42-26.29-28.32-47.38-29.34-77.63Z"/><path class="al" d="M191.55,382.52c4.86,16.39,14.32,31.68,15.29,48.74,.44,7.79-3.7,22.24-5.07,29.91,15.15,2.41,33.42-4.18,48.6-6.36,2.29-.33,4.69-.76,6.49-2.21s2.7-3.6,3.54-5.71c12.15-30.68,17.31-63.68,15.1-96.6-.35-5.07-.89-10.21-2.75-14.94-.36-1.18-1.05-2.22-2-3-1.22-.66-2.62-.94-4-.8l-37.83,.21c-11.5,.06-29.65-.24-38.24,9.13-7.87,8.49-2.1,31.62,.87,41.63Z"/><path class="ap" d="M191.55,382.52c4.86,16.39,14.32,31.68,15.29,48.74,.44,7.79-3.7,22.24-5.07,29.91,15.15,2.41,33.42-4.18,48.6-6.36,2.29-.33,4.69-.76,6.49-2.21s2.7-3.6,3.54-5.71c12.15-30.68,17.31-63.68,15.1-96.6-.35-5.07-.89-10.21-2.75-14.94-.36-1.18-1.05-2.22-2-3-1.22-.66-2.62-.94-4-.8l-37.83,.21c-11.5,.06-29.65-.24-38.24,9.13-7.87,8.49-2.1,31.62,.87,41.63Z"/><path class="al" d="M305.04,374.79c-1.26,24.37-.92,48.79,1,73.11,.22,1.23,.08,2.49-.4,3.64-1.06,2-3.72,2.3-6,2.37-13.47,.37-26.94,.22-40.41-.47-2.8,.31-5.39-1.55-6-4.3-3.45-7.77-6.39-15.88-11.39-22.76-6.14-8.47-15-14.54-21.81-22.49-9.86-11.55-14.88-26.53-17.31-41.51-.64-3.93-1-8.39,1.52-11.48,2.23-2.75,6-3.54,9.44-4.44,12-3.16,22.78-9.66,33.38-16.09,8.5-5.16,17.09-10.34,24.67-16.82,6.18-5.28,12.36-14.89,21.81-11.32,5.85,2.21,6.05,7.17,6,12.74,0,8-.4,14.92,1.88,22.69,3.8,12.63,4.29,24.02,3.62,37.13Z"/><path class="ag" d="M305.04,374.79c-1.26,24.37-.92,48.79,1,73.11,.22,1.23,.08,2.49-.4,3.64-1.06,2-3.72,2.3-6,2.37-13.47,.37-26.94,.22-40.41-.47-2.8,.31-5.39-1.55-6-4.3-3.45-7.77-6.39-15.88-11.39-22.76-6.14-8.47-15-14.54-21.81-22.49-9.86-11.55-14.88-26.53-17.31-41.51-.64-3.93-1-8.39,1.52-11.48,2.23-2.75,6-3.54,9.44-4.44,12-3.16,22.78-9.66,33.38-16.09,8.5-5.16,17.09-10.34,24.67-16.82,6.18-5.28,12.36-14.89,21.81-11.32,5.85,2.21,6.05,7.17,6,12.74,0,8-.4,14.92,1.88,22.69,3.8,12.63,4.29,24.02,3.62,37.13Z"/><path class="ak" d="M284.03,90.39c2.39,0,4.71,.74,6.65,2.13,1.03,.86,1.89,1.92,2.51,3.11,3.48,6.33,2.19,14.41,5.49,20.84,.88,1.7,2.1,3.44,1.8,5.33-.26,1.69-1.66,2.94-2.41,4.47-1.38,2.82-.43,6.22-1.19,9.26-.48,1.67-1.28,3.23-2.37,4.58-1.47,2.14-3.4,3.93-5.65,5.24-2.28,1.31-4.99,1.62-7.51,.87-2.72-.92-4.68-3.25-6.44-5.52-1.8-2.14-3.28-4.52-4.41-7.07-1.74-4.36-1.54-9.22-1.3-13.91,.48-9.67,1.04-29.98,14.83-29.33Z"/><path class="al" d="M301.16,88.48c-.23,.25-.5,.46-.8,.63-.41,.16-.84,.23-1.28,.2-2.39,.01-4.78,.21-7.14,.58-.4,.03-.79,.16-1.12,.4-.32,.37-.51,.83-.54,1.31-.7,4.35-.91,8.76-.6,13.15,.1,1.4,.34,3,1.49,3.8,.93,.51,2,.72,3.05,.6l3.67-.07c.31-.03,.62,.03,.89,.17,.38,.24,.46,.75,.57,1.19,.63,2.72,3.14,4.67,5.79,5.55s5.5,.91,8.28,1.17c8.78,.84,17.19,4.07,26,4.9,1.4,.31,2.87-.1,3.91-1.09l5.37-4.23c.48-.44,1.04-.78,1.65-1,.51-.12,1.04-.17,1.56-.12,5.64,.23,11.87,1.18,16.42-2.15,2.3-1.86,4.02-4.34,4.95-7.14,1.21-2.93,1.76-6.09,1.61-9.26-.33-4.34-2.36-8.37-5.65-11.22-.49-.45-1.05-.81-1.66-1.07-.72-.22-1.48-.32-2.23-.29l-18.62-.36c-9.06-.17-18.12-.34-27.18-.2-3.3-.04-6.58,.4-9.75,1.31-3.11,.94-6.12,.86-8.64,3.24Z"/><path class="an" d="M301.16,88.48c-.23,.25-.5,.46-.8,.63-.41,.16-.84,.23-1.28,.2-2.39,.01-4.78,.21-7.14,.58-.4,.03-.79,.16-1.12,.4-.32,.37-.51,.83-.54,1.31-.7,4.35-.91,8.76-.6,13.15,.1,1.4,.34,3,1.49,3.8,.93,.51,2,.72,3.05,.6l3.67-.07c.31-.03,.62,.03,.89,.17,.38,.24,.46,.75,.57,1.19,.63,2.72,3.14,4.67,5.79,5.55s5.5,.91,8.28,1.17c8.78,.84,17.19,4.07,26,4.9,1.4,.31,2.87-.1,3.91-1.09l5.37-4.23c.48-.44,1.04-.78,1.65-1,.51-.12,1.04-.17,1.56-.12,5.64,.23,11.87,1.18,16.42-2.15,2.3-1.86,4.02-4.34,4.95-7.14,1.21-2.93,1.76-6.09,1.61-9.26-.33-4.34-2.36-8.37-5.65-11.22-.49-.45-1.05-.81-1.66-1.07-.72-.22-1.48-.32-2.23-.29l-18.62-.36c-9.06-.17-18.12-.34-27.18-.2-3.3-.04-6.58,.4-9.75,1.31-3.11,.94-6.12,.86-8.64,3.24Z"/><path class="al" d="M288.33,78.22c4.48,9.71,3.14,21,2.46,31.63-1.07,16.74-.28,33.55,2.37,50.12-5.45-4.68-12.33-7.44-19.35-9s-14.22-1.9-21.4-2.26c-1.53-.16-3.07-.08-4.58,.23-3.94,1-6.35,5-7.67,8.87s-2,8-4.39,11.35l2-18.17c.31-1.5,.17-3.05-.4-4.47-.65-1.07-1.61-1.91-2.76-2.41-3.96-1.9-8.62-1.57-12.28,.86-1.39-6.61,3.61-12.71,5.22-19.27,1.15-4.67,.55-9.58,.23-14.38-.54-7.37-.32-14.77,.65-22.09,.6-4.39,1.53-8.81,3.72-12.65,3.57-6.26,10.11-10.3,16.88-12.77,7.36-2.68,16.37-3.52,22.36,1.52,1.47,1.24,2.88,3.11,4.84,3.55,1.71,.38,3,0,4.7,.93,3.34,1.78,5.79,5.04,7.4,8.41Z"/><path class="am" d="M288.33,78.22c4.48,9.71,3.14,21,2.46,31.63-1.07,16.74-.28,33.55,2.37,50.12-5.45-4.68-12.33-7.44-19.35-9s-14.22-1.9-21.4-2.26c-1.53-.16-3.07-.08-4.58,.23-3.94,1-6.35,5-7.67,8.87s-2,8-4.39,11.35l2-18.17c.31-1.5,.17-3.05-.4-4.47-.65-1.07-1.61-1.91-2.76-2.41-3.96-1.9-8.62-1.57-12.28,.86-1.39-6.61,3.61-12.71,5.22-19.27,1.15-4.67,.55-9.58,.23-14.38-.54-7.37-.32-14.77,.65-22.09,.6-4.39,1.53-8.81,3.72-12.65,3.57-6.26,10.11-10.3,16.88-12.77,7.36-2.68,16.37-3.52,22.36,1.52,1.47,1.24,2.88,3.11,4.84,3.55,1.71,.38,3,0,4.7,.93,3.34,1.78,5.79,5.04,7.4,8.41Z"/><path class="ai" d="M255.2,54.49l-9.48-7.43c-1.07-1.13-2.72-1.48-4.16-.89-9.52,2.41-18.77,6.58-25.89,13.34-10,9.51-14.91,23.19-18.16,36.62-.52,2.17-1,4.51-.19,6.58,.71,1.47,1.74,2.77,3,3.81l7.75,7.44c.59,.47,1.02,1.1,1.26,1.81,.08,.82-.12,1.65-.58,2.34-1.46,2.73-3.47,5.13-5,7.8s-2.7,5.8-2.15,8.85c.77,3.8,3.92,6.66,7.78,7.06,2.68,.22,5.29-.82,7.75-1.92,17.96-8.11,33.58-20.63,45.39-36.41,6.34-8.5,11.49-17.84,16.34-27.28,2.81-5.48,5.55-11.06,7.13-17,1.16-3.79,1.38-7.81,.64-11.7-.11-.7-.42-1.36-.89-1.89-.67-.53-1.5-.83-2.36-.85-7.77-.84-15.52,1.79-21.16,7.2-1.1,1.26-2.58,2.14-4.22,2.5-.81,.17-2.15,.5-2.8,.02Z"/><path class="au" d="M253.55,52.84l-9.48-7.43c-.55-.5-1.19-.86-1.9-1.08-.76-.12-1.54-.05-2.27,.19-9.51,2.4-18.77,6.57-25.88,13.33-10,9.52-14.91,23.2-18.16,36.63-.52,2.17-1,4.5-.19,6.58,.71,1.47,1.74,2.77,3,3.8l7.75,7.44c.59,.46,1.03,1.09,1.26,1.81,.09,.82-.11,1.65-.57,2.34-1.46,2.73-3.47,5.14-5,7.81s-2.7,5.79-2.15,8.84c.77,3.8,3.91,6.67,7.77,7.07,2.69,.22,5.3-.82,7.76-1.92,17.96-8.1,33.57-20.63,45.38-36.41,6.35-8.51,11.5-17.84,16.35-27.28,2.81-5.48,5.55-11.06,7.12-17,1.16-3.79,1.38-7.8,.64-11.69-.11-.7-.41-1.36-.88-1.89-.68-.53-1.51-.84-2.37-.86-7.75-.8-15.46,1.85-21.09,7.24-1.13,1.28-2.64,2.15-4.31,2.49-.8,.12-2.14,.5-2.78,0Z"/><path class="ai" d="M200.56,187.04c-.52,33.31-1.24,66.75-6.44,99.65-2.18,13.83-5.15,27.95-2.5,41.69,.7,7.19,5.53,13.31,12.36,15.66,5.49,2.34,11.23,4.06,17.11,5.12,8.3,1.68,16.91,2.76,25.2,1,17.21-3.62,29.83-18.78,36.88-34.89,1.48-3.38,4.14-7.57,7.68-6.52,4.33,1.28,3.61,8.83,7.82,10.47,4.19-10.25-1.62-21.64-2.18-32.7-.63-12.38,5.39-24,10.62-35.24s9.92-23.86,6.54-35.79c-1.47-5.21-4.4-9.88-6.15-15-2.51-7.3-2.55-15.23-4.66-22.66-4.08-14.42-15.91-25.88-29.7-31.76-13.14-5.61-34.14-9.38-48.23-4.79-21.1,6.91-24.04,26.13-24.35,45.76Z"/><path class="ax" d="M200.56,187.04c-.52,33.31-1.24,66.75-6.44,99.65-2.18,13.83-5.15,27.95-2.5,41.69,.7,7.19,5.53,13.31,12.36,15.66,5.49,2.34,11.23,4.06,17.11,5.12,8.3,1.68,16.91,2.76,25.2,1,17.21-3.62,29.83-18.78,36.88-34.89,1.48-3.38,4.14-7.57,7.68-6.52,4.33,1.28,3.61,8.83,7.82,10.47,4.19-10.25-1.62-21.64-2.18-32.7-.63-12.38,5.39-24,10.62-35.24s9.92-23.86,6.54-35.79c-1.47-5.21-4.4-9.88-6.15-15-2.51-7.3-2.55-15.23-4.66-22.66-4.08-14.42-15.91-25.88-29.7-31.76-13.14-5.61-34.14-9.38-48.23-4.79-21.1,6.91-24.04,26.13-24.35,45.76Z"/><path class="ai" d="M270.33,147.79c-5.41-.92-11.62-1.38-15.71,2.28-1.77,1.73-3.07,3.88-3.78,6.25-3.07,8.79-1.82,18.8,2.51,27s11.56,14.77,19.8,19.11c11.43,6.09,24.69,7.79,37.28,4.77,9.22-2.33,17.66-7.3,27-9.21,12.24-2.52,26.06,.18,36.5-6.7,1.13-.68,2.12-1.59,2.89-2.66,.78-1.25,1.24-2.68,1.35-4.15,.84-7.67-3.67-15-9-20.51-1.38-1.59-3.08-2.86-5-3.73-1.74-.58-3.58-.84-5.41-.76-10.7-.1-21.36,1.33-32.06,1.34-7.67,0-15.45-.73-22.73-3.22-3-1-5.65-2.56-8.55-3.65-3.65-1.28-7.36-2.36-11.12-3.24-4.65-1.16-9.3-2.13-13.97-2.92Z"/><path class="ac" d="M270.33,147.79c-5.41-.92-11.62-1.38-15.71,2.28-1.77,1.73-3.07,3.88-3.78,6.25-3.07,8.79-1.82,18.8,2.51,27s11.56,14.77,19.8,19.11c11.43,6.09,24.69,7.79,37.28,4.77,9.22-2.33,17.66-7.3,27-9.21,12.24-2.52,26.06,.18,36.5-6.7,1.13-.68,2.12-1.59,2.89-2.66,.78-1.25,1.24-2.68,1.35-4.15,.84-7.67-3.67-15-9-20.51-1.38-1.59-3.08-2.86-5-3.73-1.74-.58-3.58-.84-5.41-.76-10.7-.1-21.36,1.33-32.06,1.34-7.67,0-15.45-.73-22.73-3.22-3-1-5.65-2.56-8.55-3.65-3.65-1.28-7.36-2.36-11.12-3.24-4.65-1.16-9.3-2.13-13.97-2.92Z"/><path class="af" d="M315.6,114.09c-.09,.44-.02,.9,.2,1.3,.3,.35,.71,.58,1.16,.64,3,.72,6.07-.56,9.09-1.23,4.55-1,9.28-.61,13.92-.22,.89-.05,1.71,.5,2,1.35,5.28,9.18,10.69,18.81,11.23,29.39-.01,2.38,.12,4.76,.41,7.12,1.34,7.37,7.69,12.55,12.56,18.23,2.37,2.77,4.49,5.8,7.34,8.09s6.66,3.74,10.15,2.71c3.91-1.14,6.43-5.15,7.05-9.17s-.29-8.11-1.2-12.08c-1.85-8.13-3.73-16.34-7.31-23.87-5.11-10.75-13.4-19.59-20.23-29.32-4.71-6.71-8.75-13.87-12.05-21.37-.72-1.65-1.48-3.4-3-4.42-3.3-2.27-7.87,.35-11.78-.54-2.71-.62-4.74-2.84-7.22-4.1s-6.35-.91-7,1.78c-3.52-.32-7.04,.56-10,2.49-.4,.26-.83,.63-.81,1.1s.42,.75,.78,1c5.79,4.14,12.29,10.35,15.05,17.07,2.82,6.93-9.5,7-10.34,14.05Z"/><path class="al" d="M221.75,127.33c8.34-5,16.8-10.16,23.37-17.35s10.93-16.15,14.3-25.3c2.44-6.6,4.42-13.48,4.44-20.51,0-1.93,.12-.87-.65-2.64-1.71-4-7.77-7.9-11.71-9.65,3.35,6.51,1.95,13.23-1.43,19.73-4.74,9.06-10.35,17.74-17.74,24.81-3,2.9-23,18.51-23,18.51,0,.84,8.36,9.04,12.42,12.4Z"/><path class="as" d="M221.75,127.33c8.34-5,16.8-10.16,23.37-17.35s10.93-16.15,14.3-25.3c2.44-6.6,4.42-13.48,4.44-20.51,0-1.93,.12-.87-.65-2.64-1.71-4-7.77-7.9-11.71-9.65,3.35,6.51,1.95,13.23-1.43,19.73-4.74,9.06-10.35,17.74-17.74,24.81-3,2.9-23,18.51-23,18.51,0,.84,8.36,9.04,12.42,12.4Z"/><path class="av" d="M235.61,62.18c-6.76,16.08-16.94,31.68-32.41,39.74-1.5,.78-3.26,1.49-4.82,.84-1.51-.78-2.4-2.38-2.26-4.07,.16-1.65,.65-3.25,1.44-4.71l6-13.13c3.43-7.47,6.92-15,12.27-21.28,4.22-4.93,9.81-9,16.18-10.63,3-.75,5.33-1.55,6.07,1.87,.82,3.65-1.09,8.09-2.47,11.37Z"/><path class="ai" d="M219.33,176.15c-.67,.78-1.07,1.75-1.15,2.77,0,1.38,1.11,2.47,2.07,3.47,11.19,11.77,11.1,29.87,12,46.09,.91,17.16,3.63,34.17,6.34,51.14,.79,4.93,1.66,10.07,4.63,14.09,5.59,7.59,16.48,8.66,24.15,14.15,2.13,1.52,4.12,3.58,4.57,6.17s-.79,5.37-2,7.82l-12.81,25.54c-1.56,3.5-3.58,6.77-6,9.74-2.58,2.7-5.55,5.01-8.8,6.84-16.87,10.37-36.31,17.6-56.09,16.69s-39.78-11-49.14-28.48c-6.71-12.5-7.5-27.31-6.75-41.48s2.9-28.36,1.48-42.48c-.78-7.75-2.64-15.45-2.3-23.24,.45-10.7,5-20.75,9.44-30.5,2.79-6.09,5.62-12.25,9.85-17.44,4.71-5.77,11.1-10.29,14.47-16.93,1.11-2.19,2-4.74,4.19-5.88,1.43-.6,2.99-.85,4.54-.7,7.79,.11,16.6-.1,21.88-5.83,4-4.39,4.79-10.78,6.92-16.36,2.13-5.58,7.39-11.18,13.16-9.63-1.9,8.74-2.63,17.69-2.16,26.62,9.36-6.6,16.74-15.72,26.22-22.15,6.17-4.19,15.09-8.06,22.75-6.72,10.68,1.87,4.42,7.19-1.85,9.65-15.02,5.86-30.19,13.54-39.61,27.04Z"/><path class="aj" d="M219.33,176.15c-.67,.78-1.07,1.75-1.15,2.77,0,1.38,1.11,2.47,2.07,3.47,11.19,11.77,11.1,29.87,12,46.09,.91,17.16,3.63,34.17,6.34,51.14,.79,4.93,1.66,10.07,4.63,14.09,5.59,7.59,16.48,8.66,24.15,14.15,2.13,1.52,4.12,3.58,4.57,6.17s-.79,5.37-2,7.82l-12.81,25.54c-1.56,3.5-3.58,6.77-6,9.74-2.58,2.7-5.55,5.01-8.8,6.84-16.87,10.37-36.31,17.6-56.09,16.69s-39.78-11-49.14-28.48c-6.71-12.5-7.5-27.31-6.75-41.48s2.9-28.36,1.48-42.48c-.78-7.75-2.64-15.45-2.3-23.24,.45-10.7,5-20.75,9.44-30.5,2.79-6.09,5.62-12.25,9.85-17.44,4.71-5.77,11.1-10.29,14.47-16.93,1.11-2.19,2-4.74,4.19-5.88,1.43-.6,2.99-.85,4.54-.7,7.79,.11,16.6-.1,21.88-5.83,4-4.39,4.79-10.78,6.92-16.36,2.13-5.58,7.39-11.18,13.16-9.63-1.9,8.74-2.63,17.69-2.16,26.62,9.36-6.6,16.74-15.72,26.22-22.15,6.17-4.19,15.09-8.06,22.75-6.72,10.68,1.87,4.42,7.19-1.85,9.65-15.02,5.86-30.19,13.54-39.61,27.04Z"/><path class="aw" d="M194.53,234.44c1.07-7.24,3.27-14.24,5.47-21.22l6.29-20c.52-1.65,1.17-3.46,2.72-4.23,2.27-1.14,4.9,.66,6.61,2.54,12.35,13.5,12,33.81,13.51,52,1.71,20.93,7.8,43.2,24.38,56.09,6.83,5.32,16.12,10.41,16.08,19.07,0,4.21-2.42,8-4.74,11.51l-11.08,16.8c-5.9,8.95-13.09,18.75-23.72,20.14-3.2,.54-6.48-.17-9.16-2-3.2-2.43-4.43-6.6-5.48-10.48-10.32-38.16-25.91-80.04-20.88-120.22Z"/><path class="ai" d="M197.42,355.35c.59,1.49,1.49,2.83,2.65,3.93,2.71,2.24,6.74,1.56,10.09,.5,6.18-2.12,12.19-4.69,18-7.68,4.11-1.87,8.07-4.07,11.82-6.59,1.66-1.09,3.09-2.5,4.18-4.16,1.09-1.69,1.32-3.79,.62-5.68-.48-.94-1.09-1.8-1.81-2.56-6.16-7.23-10.63-15.74-13.11-24.91-1.2-4.45-1.92-9.05-3.78-13.26-.2-.55-.54-1.03-1-1.4-.82-.41-1.78-.47-2.64-.15-7.49,1.63-15.16,3.35-21.57,7.54-3.67,2.58-7.09,5.49-10.22,8.7-2.16,2.08-4.36,4.13-4.43,7.3-.17,7.89,3.06,17,5.54,24.37,1.61,4.79,3.5,9.48,5.66,14.05Z"/><path class="aa" d="M198.89,354.06c.59,1.49,1.49,2.84,2.65,3.94,2.71,2.24,6.74,1.56,10.09,.49,6.18-2.12,12.19-4.69,18-7.68,4.11-1.87,8.07-4.07,11.82-6.59,1.66-1.08,3.09-2.5,4.18-4.15,1.09-1.69,1.32-3.79,.62-5.68-.47-.94-1.08-1.81-1.81-2.57-6.16-7.23-10.63-15.74-13.11-24.91-1.2-4.44-1.93-9.05-3.78-13.26-.2-.55-.54-1.03-1-1.4-.82-.4-1.78-.45-2.64-.15-7.49,1.64-15.16,3.35-21.57,7.55-3.67,2.57-7.09,5.49-10.22,8.7-2.16,2.07-4.36,4.13-4.43,7.29-.17,7.89,3.06,17,5.54,24.37,1.6,4.79,3.49,9.48,5.66,14.05Z"/><path class="ai" d="M194.79,202.54c-1.76,5.74-2.85,11.82-6.11,16.86-2.51,3.87-6.14,6.85-9.58,9.92-6.48,5.78-12.47,12.1-17.9,18.88-1.63,2-3.27,4.17-5.51,5.53-2.17,1.17-4.55,1.88-7,2.09-6.02,.83-12.13,.81-18.14-.07-1.81-.26-3.75-.68-5-2-.93-1.24-1.49-2.72-1.62-4.26-4.42-28.02,5-56.45,25.28-76.28,1.93-2.03,4.22-3.67,6.76-4.85,2.48-.86,5.07-1.34,7.69-1.42,11.83-.93,24.29-1.76,35,3.31,2.18,1,7.44,3.2,8.5,5.51,1.29,2.8-1.64,5.21-3.14,7.42-4.02,5.96-7.13,12.48-9.23,19.36Z"/><path class="ar" d="M194.79,202.54c-1.76,5.74-2.85,11.82-6.11,16.86-2.51,3.87-6.14,6.85-9.58,9.92-6.48,5.78-12.47,12.1-17.9,18.88-1.63,2-3.27,4.17-5.51,5.53-2.17,1.17-4.55,1.88-7,2.09-6.02,.83-12.13,.81-18.14-.07-1.81-.26-3.75-.68-5-2-.93-1.24-1.49-2.72-1.62-4.26-4.42-28.02,5-56.45,25.28-76.28,1.93-2.03,4.22-3.67,6.76-4.85,2.48-.86,5.07-1.34,7.69-1.42,11.83-.93,24.29-1.76,35,3.31,2.18,1,7.44,3.2,8.5,5.51,1.29,2.8-1.64,5.21-3.14,7.42-4.02,5.96-7.13,12.48-9.23,19.36Z"/><path class="ai" d="M198.72,277.34c-7.66,2.77-14.59,7.21-21.44,11.6-1.52,1-3.12,2-3.87,3.69-1.28,2.83,.4,6,1.82,8.78,3.65,7.14,5.69,14.99,6,23,5.52-1.69,11.28,2.67,17,2,2.44-.45,4.78-1.36,6.88-2.68l17.94-9.76c3.21-1.36,5.72-3.99,6.91-7.27,1.82-3.72,3.68-7.78,2.83-11.83-.44-1.67-1.12-3.27-2-4.75-1.9-3.63-7.62-19.52-11.57-20.08-1.91-.28-7.63,3.28-9.69,3.94-3.57,1.17-7.2,2.07-10.81,3.36Z"/><path class="a`" d="M197.43,277.89c-7.66,2.78-14.58,7.21-21.44,11.61-1.52,1-3.12,2-3.87,3.68-1.28,2.83,.41,6,1.82,8.78,3.65,7.14,5.7,14.99,6,23,5.53-1.69,11.28,2.68,17,2,2.44-.45,4.78-1.36,6.88-2.68l17.92-9.75c3.21-1.36,5.7-4,6.9-7.27,1.82-3.72,3.68-7.78,2.84-11.83-.45-1.67-1.12-3.27-2-4.75-1.9-3.62-7.63-19.52-11.58-20.08-1.91-.27-7.63,3.28-9.69,3.94-3.54,1.16-7.22,2.06-10.78,3.35Z"/><path class="ai" d="M181.52,341.81c1.77,5.1,3.05,10.37,3.81,15.72,.26,2.31,.27,4.86-1.11,6.73s-3.86,2.61-6.18,2.61c-2.32-.14-4.62-.45-6.9-.91-5.11-.67-10.42,.17-15.35-1.33-1.65-.54-3.26-1.2-4.8-2l-13.22-6.39c-.59-.25-1.14-.59-1.64-1-.59-.6-1.04-1.31-1.34-2.09-2.93-6.66-3.68-14.07-2.16-21.18,1.45-6.73,4.9-12.93,6.09-19.71,.68-3.91,.65-8.08,2.62-11.51,.49-.94,1.22-1.72,2.13-2.27,1.12-.49,2.34-.7,3.56-.63,3.82-.06,1.15-5,5-5.06,2.62,0,12.71,.29,14.88,2s2.52,10.39,3.42,13c2.47,7.16,4.88,14.34,7.23,21.55,1.33,4.17,2.65,8.32,3.96,12.47Z"/><path class="ad" d="M181.52,341.81c1.77,5.1,3.05,10.37,3.81,15.72,.26,2.31,.27,4.86-1.11,6.73s-3.86,2.61-6.18,2.61c-2.32-.14-4.62-.45-6.9-.91-5.11-.67-10.42,.17-15.35-1.33-1.65-.54-3.26-1.2-4.8-2l-13.22-6.39c-.59-.25-1.14-.59-1.64-1-.59-.6-1.04-1.31-1.34-2.09-2.93-6.66-3.68-14.07-2.16-21.18,1.45-6.73,4.9-12.93,6.09-19.71,.68-3.91,.65-8.08,2.62-11.51,.49-.94,1.22-1.72,2.13-2.27,1.12-.49,2.34-.7,3.56-.63,3.82-.06,1.15-5,5-5.06,2.62,0,12.71,.29,14.88,2s2.52,10.39,3.42,13c2.47,7.16,4.88,14.34,7.23,21.55,1.33,4.17,2.65,8.32,3.96,12.47Z"/><path class="ai" d="M356.68,154.28c-2.16,1.59-4.07,3.67-6.63,4.5,1.16,3.94,6.15,5.62,7.71,9.41,1.06,2.58,.3,5.49-.13,8.24-1.08,6.92,.05,14,1.18,20.87,.28,1.71,.74,3.68,2.31,4.42,.58,.23,1.19,.35,1.81,.37,3.36,.24,6.91,0,9.8-1.68,3.91-2.33,6.1-7.14,10.37-8.7,1.31-.48,2.88-.71,3.64-1.88,.53-1.1,.58-2.37,.13-3.5-1.56-6-4.6-11.4-7.66-16.74-1.66-3.1-3.62-6.03-5.86-8.75-2.52-2.72-5.34-5.15-8.41-7.23-2.75-2-5.54-1.33-8.26,.67Z"/><path class="ae" d="M356.68,154.28c-2.16,1.59-4.07,3.67-6.63,4.5,1.16,3.94,6.15,5.62,7.71,9.41,1.06,2.58,.3,5.49-.13,8.24-1.08,6.92,.05,14,1.18,20.87,.28,1.71,.74,3.68,2.31,4.42,.58,.23,1.19,.35,1.81,.37,3.36,.24,6.91,0,9.8-1.68,3.91-2.33,6.1-7.14,10.37-8.7,1.31-.48,2.88-.71,3.64-1.88,.53-1.1,.58-2.37,.13-3.5-1.56-6-4.6-11.4-7.66-16.74-1.66-3.1-3.62-6.03-5.86-8.75-2.52-2.72-5.34-5.15-8.41-7.23-2.75-2-5.54-1.33-8.26,.67Z"/><path class="ai" d="M154.04,302.39c-.17,4.94,.83,9.83,1.55,14.72,1.43,9.63,1.62,20.19-3.82,28.26-.24,.63-.95,.94-1.58,.7-.09-.03-.18-.08-.25-.13-8.34-3.31-16.54-7-24.61-11.05-.91-.35-1.7-.96-2.28-1.74-.44-.91-.6-1.92-.48-2.92l.84-28.18c0-1.8,.17-3.59,.49-5.36,.51-2.36,1.53-4.59,3-6.51,.8-1.18,1.92-2.11,3.23-2.68,1.22-.35,2.49-.44,3.75-.28,8.52,.5,17,1.13,25.54,1.76,.97,.02,1.93,.2,2.84,.53,2.35,1,3.34,3.74,4.08,6.18-.81-2.65-6.27-2.26-8.18-1.68-3.13,.96-4.02,5.55-4.12,8.38Z"/><path class="ai" d="M158.25,215.49c-4.7,6.58-8.73,13.78-10.73,21.69-2.62,10.25-1.68,21.06-1.48,31.66,.52,32.79-6.17,65.29-19.61,95.2-2.82,6.22-6.07,12.52-11.51,16.63-2.15-2.39-4.35-4.77-6.54-7.16-.37-.35-.67-.76-.9-1.21-.17-.27-.29-.56-.35-.87-.03-.99,.3-1.95,.94-2.7,2.93-4.38,6.93-8,9.74-12.44,3.1-4.94,4.55-10.73,5.84-16.4,3.25-14.21,5.56-28.62,7.9-43,1.1-6.81,2.2-13.62,2.82-20.51,1.33-14.52,.63-29.2,3-43.57,2-12.48,6.73-25.28,16.08-34.21,3.06-2.89,7.79-5.16,11-3.05,1.36,.95,2.31,2.38,2.66,4,1.79,5.8-5.78,11.71-8.86,15.94Z"/><path class="at" d="M156.25,213.1c-4.73,6.58-8.77,13.78-10.76,21.65-2.58,10.29-1.68,21.1-1.49,31.7,.55,32.79-6.14,65.3-19.61,95.2-2.78,6.22-6.07,12.52-11.47,16.63-1.84-2-3.68-4-5.44-6-.17-.27-.29-.56-.35-.87-.03-.99,.3-1.95,.94-2.7,2.93-4.38,6.93-8,9.74-12.44,3.1-4.94,4.55-10.73,5.84-16.4,3.25-14.21,5.56-28.62,7.9-43,1.1-6.81,2.2-13.62,2.82-20.51,1.33-14.52,.63-29.2,3-43.57,2-12.48,6.73-25.28,16.08-34.21,3.06-2.89,7.79-5.16,11-3.05,.25,.52,.46,1.05,.63,1.6,1.78,5.84-5.81,11.75-8.83,15.97Z"/><path class="ai" d="M485.55,301.97c-3.88,0-7.92,.3-11.46-1.28-3-1.32-5.19-3.79-7.55-6-8.9-8.25-20.29-13.3-32.38-14.34-9.39-.79-18.8,.9-28.23,1.3-18.99,.8-37.84-3.58-54.52-12.68,3.48,26.44,19.2,49.7,42.43,62.79,5.68,3.14,12,5.88,15.59,11.32,6.66,10.19,.71,25.53,8.45,34.92,2.92,3.54,7.29,5.51,10.81,8.45,9,7.57,11.29,20.29,16.56,30.82,10.12,20.2,31.23,32.06,51.14,42.72,7.25,3.89,14.65,7.82,22.75,9.27,7.72,1.38,15.72,.4,23.28-1.68,30.31-8.31,55.51-39.42,48.86-70.14-5.07-23.4-26.67-40.26-40.61-58.63-15.98-21.1-37.58-36.93-65.12-36.84Z"/><path class="aq" d="M485.55,301.97c-3.88,0-7.92,.3-11.46-1.28-3-1.32-5.19-3.79-7.55-6-8.9-8.25-20.29-13.3-32.38-14.34-9.39-.79-18.8,.9-28.23,1.3-18.99,.8-37.84-3.58-54.52-12.68,3.48,26.44,19.2,49.7,42.43,62.79,5.68,3.14,12,5.88,15.59,11.32,6.66,10.19,.71,25.53,8.45,34.92,2.92,3.54,7.29,5.51,10.81,8.45,9,7.57,11.29,20.29,16.56,30.82,10.12,20.2,31.23,32.06,51.14,42.72,7.25,3.89,14.65,7.82,22.75,9.27,7.72,1.38,15.72,.4,23.28-1.68,30.31-8.31,55.51-39.42,48.86-70.14-5.07-23.4-26.67-40.26-40.61-58.63-15.98-21.1-37.58-36.93-65.12-36.84Z"/><path class="ai" d="M83.56,318.63c-3.21,12.33-4.18,25.14-2.86,37.81,1.13,10.85,3.94,21.78,2.1,32.54-1.44,8.42-5.65,16.08-9.78,23.56l-18.15,32.81c-14.37-21.19-37.26-48.48-26.73-74.78,4.86-12.14,13.55-23.38,23.08-32.22,4.36-4.03,31.7-17.26,32.34-19.72Z"/><path class="ab" d="M83.56,318.63c-3.21,12.33-4.18,25.14-2.86,37.81,1.13,10.85,3.94,21.78,2.1,32.54-1.44,8.42-5.65,16.08-9.78,23.56l-18.15,32.81c-14.37-21.19-37.26-48.48-26.73-74.78,4.86-12.14,13.55-23.38,23.08-32.22,4.36-4.03,31.7-17.26,32.34-19.72Z"/></g></g></svg>