<?xml version="1.0" encoding="utf-8"?>
<!-- Generator: Adobe Illustrator 25.2.1, SVG Export Plug-In . SVG Version: 6.00 Build 0)  -->
<svg version="1.1" id="Layer_1" xmlns="http://www.w3.org/2000/svg" xmlns:xlink="http://www.w3.org/1999/xlink" x="0px" y="0px"
	 viewBox="0 0 300 70" style="enable-background:new 0 0 300 70;" xml:space="preserve">
<style type="text/css">
	.st0{fill:#40A7DE;}
</style>
<g>
	<path class="st0" d="M51.5,131.4h-16l-3,7.2l-12,0l16.9-42.9h12.5l16.6,42.9l-12.3,0L51.5,131.4z M48.5,122.9L43.6,109l-4.9,13.9
		H48.5z"/>
	<path class="st0" d="M81.1,91.7v47l-10.6,0v-47H81.1z"/>
	<path class="st0" d="M98.8,91.7v47l-10.5,0v-47H98.8z"/>
	<path class="st0" d="M124.8,95.7c3.3,0,7.5,0.5,10.8,3.8c2.5,2.5,3.8,6.2,3.8,9.7c0,3.7-1.3,6.9-3.5,9c-1.7,1.6-4,2.6-6.1,3
		l13.8,17.6l-14.2,0l-11-16.5v16.5l-11.4,0V95.7H124.8z M118.4,114.9h2.2c1.7,0,4.2-0.5,5.5-1.7c0.9-0.8,1.5-2.3,1.5-3.6
		c0-1.3-0.5-2.7-1.5-3.6c-1.1-1-3-1.7-5.5-1.7h-2.2V114.9z"/>
	<path class="st0" d="M152.8,92c3.3,0,5.9,2.6,5.9,5.8c0,3.2-2.6,5.8-5.9,5.8c-3.3,0-5.9-2.6-5.9-5.8C146.9,94.6,149.4,92,152.8,92z
		 M157.9,109.8v28.9l-10.6,0v-28.9H157.9z"/>
	<path class="st0" d="M198.6,138.8l-10.6,0v-3.3c-3,3.7-6.9,4.1-8.9,4.1c-4.2,0-7.6-1.4-10.4-4c-3-2.8-4.8-6.9-4.8-11.5
		c0-4.9,2.1-8.9,4.8-11.4c2.9-2.7,6.8-3.9,10.4-3.9c4,0,6.9,1.7,8.8,3.7V91.7h10.6L198.6,138.8L198.6,138.8z M186.1,129.1
		c1.4-1.2,2.2-3.2,2.2-4.9c0-1.6-0.9-3.5-2-4.6c-1.2-1.2-2.8-1.9-4.8-1.9c-2.2,0-3.8,1-4.7,1.9c-1.2,1.2-2,3-2,4.9
		c0,1.5,0.7,3.2,2,4.5c1.5,1.4,3.2,1.9,4.7,1.9C183.2,130.8,184.9,130,186.1,129.1z"/>
	<path class="st0" d="M237.1,126.1h-22c0,1.5,0.6,3.6,1.8,4.8c0.7,0.6,2,1.4,4.4,1.4c0.3,0,2.1-0.1,3.4-0.8c0.7-0.4,1.4-1,1.8-1.9
		h10.2c-0.5,1.6-1.4,3.9-3.6,5.9s-5.6,4-12,4c-3.9,0-8.6-0.8-12.2-4.4c-1.9-1.9-4.4-5.4-4.4-10.9c0-4.8,1.8-8.7,4.4-11.1
		c2.4-2.3,6.3-4.2,12.1-4.2c3.4,0,7.9,0.7,11.3,3.9c4.2,3.9,4.7,8.9,4.7,12.1L237.1,126.1L237.1,126.1z M227.4,120.2
		c-0.3-1.1-0.9-2.3-1.7-3.1c-1.4-1.4-3.3-1.5-4.4-1.5c-1.8,0-3.2,0.5-4.3,1.5c-0.7,0.8-1.4,1.8-1.6,3.1H227.4z"/>
	<path class="st0" d="M253.8,134.7l-14.3-24.9h12.3l7.9,14.7l7.7-14.7h12.1l-23.7,43.5h-11.8L253.8,134.7z"/>
</g>
<g>
	<path class="st0" d="M91.5,45.5c0.7-0.6,1.3-0.9,1.9-0.8c0.5,0.1,0.8,0.6,0.8,1.6c0,0.3-0.1,0.5-0.2,0.8c-0.1,0.3-0.3,0.5-0.4,0.8
		c-0.2,0.2-0.4,0.5-0.7,0.7s-0.6,0.5-0.8,0.6s-0.5,0.3-0.8,0.6c-0.4,0.2-0.6,0.4-0.7,0.5c-0.8,0.5-1.6,1-2.4,1.3
		c-0.1,0-0.4,0.2-0.8,0.4c-0.4,0.2-0.9,0.5-1.3,0.7c-0.4,0.2-1,0.5-1.5,0.8S83.4,54,83,54.1c-0.5,0.1-0.9,0.2-1.4,0.3
		c-0.5,0.1-0.8,0-1-0.2c-1.2-0.1-2.8-0.7-4.8-1.8c-2.7-1.5-4.2-3-4.5-4.4c-0.3-1-0.6-1.5-1-1.5c-0.3,0-2.1,1.3-5.4,4
		c-2.8,2.1-4.8,3.4-6,3.9c-1.3,0.5-2.5,0.4-3.6-0.3c-1.1-0.6-2.2-1.4-3.1-2.7c-1-1.2-1.4-2.3-1.4-3.1c0-1,0.3-2.6,0.9-4.7
		c0.6-2.1,1-3.3,1.4-3.7c0.4-0.5,0.6-1.2,0.6-2.2c0-0.6,0.3-1.4,0.9-2.4c0.6-1,0.9-1.9,0.9-2.5c0-0.8,0.2-1.4,0.6-1.7
		c0.4-0.3,1.2-1.6,2.3-4.1c1.2-2.5,2-4.6,2.4-6.2c0.4-1.4,1-2.6,1.7-3.8c0.8-1.2,1.3-1.6,1.6-1.4c0.3,0.2,1.9-0.8,4.6-3
		c2.1-1.8,3.9-3.1,5.3-3.9c1.4-0.8,3.2-1.6,5.5-2.3c1.9-0.6,3.2-0.9,3.7-0.8c0.5,0.1,1.3,0.6,2.6,1.7C86.4,8,87,8.6,87.3,9.1
		c0.3,0.5,0.4,1.2,0.4,2.2c0,1.6-0.8,4.2-2.3,7.8c-0.4,0.8-1,2.4-1.9,4.8c-0.7,2.4-1.5,4.2-2.3,5.5c-0.6,1.1-1.1,2.4-1.4,4.1
		C79.7,35,79.4,36.1,79,37c-0.1,0.2-0.7,1.8-1.7,4.7c-0.6,1.6-0.9,2.7-1,3.3c0,0.6,0.2,1.2,0.6,2c0.6,1.2,1.4,1.8,2.2,1.8
		c1,0.1,1.9,0.6,2.8,1.4c0.1,0,0.1,0.1,0.1,0.1c0,0,0.1,0,0.1,0.1s0.1,0.1,0.1,0.1c0.3-0.2,0.9-0.4,1.6-0.6c0.8-0.3,1.3-0.5,1.6-0.6
		C88,47.9,90,46.7,91.5,45.5z M73.7,31.2c1.1-1.7,1.9-3.4,2.5-5.1c0.8-2.3,1.4-3.9,1.9-4.7c0.6-0.8,0.8-1.6,0.8-2.5
		c0-0.8,0.2-1.4,0.6-1.7c0.3-0.2,0.8-1,1.7-2.6s1.1-2.5,0.8-2.8c-0.4-0.3-1.3-0.3-2.8,0c-1.5,0.4-2.7,0.9-3.8,1.5
		c-1,0.7-2.3,1.8-3.7,3.4c-1.4,1.6-2.1,2.6-2.1,3.1c0,0.4-0.9,1.6-2.6,3.6c-1.7,2-2.6,3.3-2.6,3.8s-0.7,1.7-2,3.6
		c-1.4,2-2.2,3.8-2.6,5.4c-0.5,1.9-0.9,3-1.2,3.5c-0.3,0.7-0.5,1.3-0.5,1.8c0,0.6-0.3,1.4-1,2.6c-0.6,1.1-0.7,1.9-0.5,2.3
		c0.2,0.4,0.9,0.7,2,0.7c0.7,0,1.8-0.5,3.2-1.4c1.4-1,2.5-1.9,3.1-2.9c0.1-0.1,0.3-0.2,0.5-0.5c0.3-0.4,0.5-0.7,0.8-1.1
		c0.3-0.5,0.6-0.9,0.9-1.2C70.5,35.8,72.6,32.9,73.7,31.2z"/>
	<path class="st0" d="M98.7,35.6c-1.1,1.3-2,2.5-2.8,3.7c-0.8,1.1-1.1,1.9-1.1,2.1c0,0.5,0.5,1.7,1.4,3.6c1.1,2.1,2.4,3.2,3.9,3.2
		c0.3,0,0.6,0,0.9-0.1c0.3-0.1,0.7-0.2,1.2-0.3s0.8-0.3,0.9-0.3c0.4-0.1,0.9-0.4,1.8-0.9c1-0.6,2-1.3,2.9-2c0.7-0.6,1.3-0.9,1.9-0.8
		c0.5,0.1,0.8,0.6,0.9,1.5c0,0.3-0.1,0.6-0.2,0.9c-0.1,0.3-0.3,0.5-0.5,0.8c-0.2,0.2-0.4,0.5-0.7,0.7c-0.3,0.3-0.6,0.5-0.8,0.6
		c-0.2,0.1-0.5,0.3-0.8,0.6c-0.4,0.2-0.6,0.4-0.7,0.5c-0.3,0.2-0.6,0.4-1.2,0.7c-0.5,0.3-0.9,0.6-1.2,0.7c-1.1,0.7-2.2,1.2-3.4,1.3
		c-1.1,0.2-1.9,0.2-2.5,0s-1.4-0.6-2.4-1.3c-1.4-0.9-2.5-2-3.3-3.1s-1.4-2.2-1.7-3.2c-0.3-1-0.4-2.2-0.4-3.5s0.1-2.5,0.2-3.6
		c0.2-1.1,0.4-2.4,0.6-3.9s0.4-2.9,0.4-4c0-0.4,0.1-0.9,0.1-1.3c0-0.5,0.1-0.9,0.1-1.2s0.1-0.8,0.2-1.3s0.2-0.9,0.2-1.2
		s0.2-0.7,0.3-1.3c0.2-0.6,0.3-1,0.3-1.2c0-0.2,0.2-0.7,0.3-1.3c0.2-0.6,0.3-1,0.3-1.2c0-0.2,0.2-0.6,0.4-1.3
		c0.2-0.7,0.3-1.1,0.4-1.2c0.4-1.2,0.7-2.1,0.9-2.6c0.3-0.6,0.7-1.2,1.2-1.7c0.5-0.6,1-1,1.4-1.4c0.4-0.4,1-0.8,1.6-1.4
		c0.3-0.2,0.7-0.6,1.3-1.1c0.6-0.5,1.1-0.9,1.4-1.1c0.3-0.2,0.7-0.5,1.2-0.9c0.5-0.4,1-0.7,1.5-1c0.5-0.3,1-0.5,1.5-0.8
		c1.2-0.6,2.2-0.8,2.9-0.7c0.5,0.1,1,0.4,1.3,0.9c0.4,0.4,0.6,0.9,0.7,1.5c0.1,0.4,0.2,0.8,0.2,1.2c0,0.4,0.1,0.8,0,1.3
		c0,0.5-0.1,0.9-0.1,1.2c0,0.3-0.1,0.8-0.2,1.3c-0.1,0.6-0.2,1-0.3,1.2c0,0.2-0.2,0.7-0.4,1.3c-0.2,0.6-0.3,1-0.4,1.1
		s-0.2,0.6-0.4,1.2c-0.2,0.7-0.4,1-0.4,1.1c-0.8,2.2-1.5,3.6-1.9,4.3c-0.3,0.5-1.3,2.2-2.8,5.1c-1.6,3-2.7,4.7-3.3,5.3
		C100.7,33.2,99.8,34.3,98.7,35.6z M96.8,27c-0.5,1.9-0.6,3-0.3,3.3c0.2,0.1,0.4,0,0.8-0.4c0.4-0.4,0.8-1,1.4-1.9
		c0.5-0.9,1.1-1.9,1.6-3.1c1.1-2.1,1.6-3.3,1.6-3.5c0-0.1,0.5-1.2,1.5-3.3c1-2.1,1.5-3.3,1.5-3.8c0-0.9-0.4-1-1.3-0.3
		c-0.6,0.4-1.1,1.1-1.6,2c-0.8,1.5-1.6,2.7-2.3,3.6c-0.6,0.8-1,1.6-1,2.4c0,0.7-0.2,1.3-0.7,1.8C97.7,24.1,97.3,25.2,96.8,27z"/>
	<path class="st0" d="M115.2,35.6c-1.1,1.3-2,2.5-2.8,3.7c-0.8,1.1-1.1,1.9-1.1,2.1c0,0.5,0.5,1.7,1.4,3.6c1.1,2.1,2.4,3.2,3.9,3.2
		c0.3,0,0.6,0,0.9-0.1c0.3-0.1,0.7-0.2,1.2-0.3s0.8-0.3,0.9-0.3c0.4-0.1,0.9-0.4,1.8-0.9c1-0.6,2-1.3,2.9-2c0.7-0.6,1.3-0.9,1.9-0.8
		c0.5,0.1,0.8,0.6,0.9,1.5c0,0.3-0.1,0.6-0.2,0.9c-0.1,0.3-0.3,0.5-0.5,0.8c-0.2,0.2-0.4,0.5-0.7,0.7c-0.3,0.3-0.6,0.5-0.8,0.6
		c-0.2,0.1-0.5,0.3-0.8,0.6c-0.4,0.2-0.6,0.4-0.7,0.5c-0.3,0.2-0.6,0.4-1.2,0.7c-0.5,0.3-0.9,0.6-1.2,0.7c-1.1,0.7-2.2,1.2-3.4,1.3
		c-1.1,0.2-1.9,0.2-2.5,0s-1.4-0.6-2.4-1.3c-1.4-0.9-2.5-2-3.3-3.1s-1.4-2.2-1.7-3.2c-0.3-1-0.4-2.2-0.4-3.5s0.1-2.5,0.2-3.6
		c0.2-1.1,0.4-2.4,0.6-3.9s0.4-2.9,0.4-4c0-0.4,0.1-0.9,0.1-1.3c0-0.5,0.1-0.9,0.1-1.2s0.1-0.8,0.2-1.3s0.2-0.9,0.2-1.2
		s0.2-0.7,0.3-1.3c0.2-0.6,0.3-1,0.3-1.2c0-0.2,0.2-0.7,0.3-1.3c0.2-0.6,0.3-1,0.3-1.2c0-0.2,0.2-0.6,0.4-1.3
		c0.2-0.7,0.3-1.1,0.4-1.2c0.4-1.2,0.7-2.1,0.9-2.6c0.3-0.6,0.7-1.2,1.2-1.7c0.5-0.6,1-1,1.4-1.4c0.4-0.4,1-0.8,1.6-1.4
		c0.3-0.2,0.7-0.6,1.3-1.1c0.6-0.5,1.1-0.9,1.4-1.1c0.3-0.2,0.7-0.5,1.2-0.9c0.5-0.4,1-0.7,1.5-1c0.5-0.3,1-0.5,1.5-0.8
		c1.2-0.6,2.2-0.8,2.9-0.7c0.5,0.1,1,0.4,1.3,0.9c0.4,0.4,0.6,0.9,0.7,1.5c0.1,0.4,0.2,0.8,0.2,1.2c0,0.4,0.1,0.8,0,1.3
		c0,0.5-0.1,0.9-0.1,1.2c0,0.3-0.1,0.8-0.2,1.3c-0.1,0.6-0.2,1-0.3,1.2c0,0.2-0.2,0.7-0.4,1.3c-0.2,0.6-0.3,1-0.4,1.1
		s-0.2,0.6-0.4,1.2c-0.2,0.7-0.4,1-0.4,1.1c-0.8,2.2-1.5,3.6-1.9,4.3c-0.3,0.5-1.3,2.2-2.8,5.1c-1.6,3-2.7,4.7-3.3,5.3
		C117.3,33.2,116.3,34.3,115.2,35.6z M113.4,27c-0.5,1.9-0.6,3-0.3,3.3c0.2,0.1,0.4,0,0.8-0.4c0.4-0.4,0.8-1,1.4-1.9
		c0.5-0.9,1.1-1.9,1.6-3.1c1.1-2.1,1.6-3.3,1.6-3.5c0-0.1,0.5-1.2,1.5-3.3c1-2.1,1.5-3.3,1.5-3.8c0-0.9-0.4-1-1.3-0.3
		c-0.6,0.4-1.1,1.1-1.6,2c-0.8,1.5-1.6,2.7-2.3,3.6c-0.6,0.8-1,1.6-1,2.4c0,0.7-0.2,1.3-0.7,1.8C114.2,24.1,113.8,25.2,113.4,27z"/>
	<path class="st0" d="M155,44.1c0.7-0.6,1.3-0.9,1.8-0.8s0.8,0.6,0.9,1.5c0,0.3,0,0.5-0.1,0.8c-0.1,0.2-0.2,0.5-0.4,0.7
		c-0.2,0.2-0.4,0.4-0.5,0.6c-0.2,0.2-0.4,0.4-0.7,0.6c-0.3,0.2-0.5,0.4-0.7,0.5c-0.2,0.1-0.4,0.3-0.7,0.5c-0.3,0.2-0.5,0.3-0.6,0.4
		c-0.8,0.5-1.6,0.9-2.4,1.3c-0.1,0-0.2,0.1-0.3,0.1c-0.1,0.2-0.2,0.3-0.4,0.4c-0.2,0.1-0.5,0.2-0.9,0.3c-0.7,0.4-1.9,0.7-3.3,0.9
		c-1.5,0.2-2.8,0.2-4,0.1s-2-0.2-2.3-0.4c-0.3-0.2-0.6-0.6-1-1.2c-0.4-0.6-0.7-1.2-0.9-1.9c-0.3-0.6-0.4-1.1-0.5-1.4
		c-0.2-0.9-0.3-1.9-0.2-3c0.1-1.1,0.3-2.8,0.5-5.2v-0.7c0-0.2-0.1-0.3-0.2-0.4s-0.3-0.1-0.5-0.2c-0.2,0-0.5,0-0.8,0
		c-0.4,0-0.8-0.1-1.3-0.2c-0.5-0.1-1-0.3-1.4-0.4c-0.5-0.1-0.9-0.2-1.2-0.2c0,0-0.1,0.5-0.3,1.5c-0.3,1-0.6,2.1-1,3.2
		c-0.4,1.1-0.8,1.8-1.1,2c-1.2,0.7-2.4,1.2-3.7,1.5c-1.7,0.4-0.9-3.3,2.3-11.1c0.1-0.2,0.2-0.6,0.5-1.2c0.3-0.6,0.4-1,0.5-1.3
		c0.1-0.2,0.3-0.6,0.5-1.2c0.2-0.5,0.4-1,0.5-1.3c0.1-0.3,0.2-0.8,0.3-1.2c0.1-0.5,0.2-1,0.2-1.4c0-0.4,0.1-0.9,0.1-1.3
		c0-0.5,0.3-1.4,1-2.8c0.7-1.3,1.2-2.1,1.6-2.4c0.5-0.3,1.2-0.4,2.1-0.3c0.9,0.1,1.5,0.3,1.8,0.6c0.4,0.5,0.4,2.4,0,5.7
		c-0.3,2.1-0.4,3.5-0.4,4.1c0,0.7,0.2,1.2,0.5,1.6c0.4,0.3,0.7,0.5,1,0.5c0.3,0,0.8-0.3,1.7-0.8c1.2-0.7,2.1-1,2.6-1s1,0.4,1.5,1.1
		c0.4,0.5,0.5,1,0.5,1.4c0,0.4-0.3,1.2-0.7,2.4c-0.6,1.7-1.2,3.7-1.8,5.9c-0.4,1.8-0.5,3.1-0.4,3.9c0.1,0.8,0.7,1.8,1.6,3
		c0.4,0.6,0.7,0.9,0.9,0.9c0.1,0,0.3,0,0.5-0.1c0.2-0.1,0.5-0.2,0.8-0.3c0.3-0.1,0.5-0.2,0.6-0.2c1-0.3,1.7-0.5,2-0.6
		C151.6,46.4,153.6,45.2,155,44.1z"/>
	<path class="st0" d="M174.5,45.7c0.2,0.4,0.2,0.8,0,1.1c-0.2,0.4-0.8,0.9-1.8,1.8c-1.5,1.3-3.3,2.5-5.4,3.6c-1.6,0.8-3.2,1.1-4.8,1
		c-1.7-0.1-3.2-0.6-4.7-1.4c-1.5-0.8-2.8-1.9-3.8-3.2c-1.5-1.8-2-4.2-1.4-7.3c0.1-0.2,0.2-1,0.4-2.3c0.2-1.3,0.4-2.5,0.6-3.5
		c0.2-1,0.4-1.7,0.7-2c0.3-0.4,0.8-0.6,1.4-0.7s1.4-0.1,2.1,0c0.7,0.1,1.4,0.3,2,0.6c0.6,0.3,1.1,0.7,1.3,1.2c0.2,0.5,0.2,1.1,0,1.8
		c-0.7,1.6-1.1,2.6-1.1,3.3c0,0.6-0.3,1.3-1,2.2c-0.6,0.6-0.9,1.4-1,2.4c-0.1,0.9,0,1.5,0.5,1.8c0.4,0.1,0.5,0.5,0.5,1.2
		c0,0.6,0.4,1.3,1.3,2c0.6,0.6,1,0.9,1.4,0.9c0.3,0.1,1,0,1.9-0.2c1.3-0.5,3-1.5,5.1-3c1.7-1.2,2.9-1.9,3.8-2
		C173.3,44.6,174,44.9,174.5,45.7z M165.8,22.4c-0.9,0.2-1.8-0.1-2.7-1c-0.6-0.6-0.9-1-1-1.2c0-0.2,0.2-0.5,0.7-0.9
		c0.7-0.5,1.6-0.7,2.6-0.7c1.1,0,1.8,0.2,2.2,0.7c0.4,0.6,0.4,1.2,0.1,1.8C167.3,21.7,166.7,22.2,165.8,22.4z"/>
	<path class="st0" d="M206.5,44.5c0.7-0.6,1.3-0.9,1.9-0.8c0.5,0.1,0.8,0.6,0.8,1.5c0,0.3,0,0.6-0.2,0.9c-0.1,0.3-0.3,0.5-0.5,0.8
		c-0.2,0.2-0.4,0.5-0.7,0.7s-0.6,0.5-0.8,0.6c-0.2,0.1-0.5,0.3-0.9,0.6c-0.4,0.2-0.6,0.4-0.7,0.5c-0.8,0.5-1.6,0.9-2.4,1.3
		c-0.1,0.1-0.4,0.2-0.7,0.4s-0.6,0.3-0.7,0.4c-1.1,0.4-1.9,0.7-2.4,0.7c-2.8,0.4-4.6,0.4-5.7,0.2c-1-0.2-2.1-0.9-3.4-2
		c-0.8-0.8-1.3-1.5-1.7-2.1c-0.3-0.6-0.6-1.5-0.8-2.6c-0.4-1.8-0.8-2.7-1.2-2.7c-0.3,0-0.6,0.3-1,1c-0.5,0.9-1.4,2.1-2.8,3.6
		c-1.3,1.5-2.4,2.5-3.3,3.1c-0.6,0.4-1.2,0.7-2,1c-0.7,0.2-1.5,0.4-2.4,0.5c-1.2,0.1-1.9,0.1-2.3,0c-0.4-0.1-0.7-0.4-1.1-0.9
		c-1-1.6-1.4-4-1-7.1s1.2-5.9,2.6-8.1c0.8-1.2,2-2.5,3.5-3.9s3-2.5,4.7-3.4c1-0.6,2.8-0.9,5.4-0.9c0.8,0,1.5-0.2,2-0.4
		c0.6-0.2,1-0.5,1.4-1s0.6-0.9,0.9-1.3c0.2-0.4,0.5-1,0.8-1.8c0.3-0.7,0.7-1.4,1-1.9c5-7.9,7.7-12.1,8.1-12.7c0.1-0.2,0.3-0.5,0.6-1
		c2-3.5,3.6-5.4,4.5-5.7c0.8-0.3,1.4,0.3,1.8,1.8c0.4,1.5,0.2,3.2-0.5,5.2c-0.7,2-1.6,3.7-2.6,5.3c-1,1.5-2.2,3.3-3.7,5.3
		s-2.4,3.4-2.8,4.3c-0.4,0.6-0.8,1.6-1.3,2.9c-0.5,1.3-0.8,2.2-1,2.7c-2.8,6.1-4,11.3-3.4,15.5c0.2,1.6,0.6,2.7,1.2,3.3
		c0.6,0.7,1.5,1,2.6,1c0.8,0,1.9-0.2,3.1-0.5c0.5-0.2,0.8-0.3,0.9-0.3C203.1,46.8,205.1,45.6,206.5,44.5z M181.2,42.5
		c4.6-5.8,6.9-9.2,6.7-10.2c-0.2-0.7-0.8-1-1.9-1c-1.1,0-2.1,0.4-3.1,1.1c-1.2,0.8-2.6,2.1-4.1,3.8c-1.5,1.7-2.4,3-2.9,4
		c-0.5,1.1-0.7,2.4-0.7,4c0,2,0.4,2.9,1.2,2.8C177.3,46.9,178.9,45.4,181.2,42.5z"/>
	<path class="st0" d="M229.4,46.5c0.7-0.6,1.3-0.8,1.9-0.7c0.5,0.1,0.8,0.6,0.8,1.5c0,0.3,0,0.6-0.2,0.9c-0.1,0.3-0.3,0.5-0.5,0.8
		c-0.2,0.2-0.4,0.4-0.7,0.7c-0.3,0.3-0.6,0.5-0.8,0.6c-0.2,0.1-0.5,0.3-0.9,0.6c-0.4,0.2-0.6,0.4-0.7,0.5c-0.8,0.5-1.6,1-2.4,1.3
		c-0.1,0-0.2,0.1-0.3,0.1c-0.1,0-0.2,0.1-0.4,0.1s-0.3,0.1-0.4,0.1s-0.2,0.1-0.3,0.1l-0.1,0c-2,0.8-4.1,1.3-6.4,1.4
		c-2.3,0.1-4-0.1-5.1-0.6c-0.1-0.1-0.7-0.3-1.6-0.7c-0.9-0.4-1.6-0.7-2-1c-0.7-0.5-1.5-1.5-2.1-3.2c-1.3-2.9-1.9-5.5-1.9-7.7
		c0-1.4,0.2-3.2,0.7-5.4c0-0.1,0.1-0.4,0.2-0.8s0.2-0.7,0.2-1c0.1-0.2,0.1-0.5,0.2-0.9c0.1-0.4,0.2-0.7,0.3-1
		c0.1-0.3,0.2-0.5,0.3-0.8c0.1-0.3,0.3-0.5,0.4-0.8c0.7-0.9,1.2-1.6,1.7-2c1.8-1.8,4-2.6,6.7-2.4c2.8,0.2,4.3,1.2,4.5,2.8
		c0.2,1.3,0.1,2.6-0.2,3.9s-0.8,2.5-1.3,3.3c-0.5,0.9-1.2,2-2.1,3.4c-0.9,1.4-1.5,2.5-1.9,3.2c-1.4,2.7-2.1,4.3-2.1,4.8
		c0,0.4,0.4,1,1.2,1.8c0.5,0.5,1,0.8,1.4,0.9s1.1,0,2.2-0.1c1.7-0.2,3.5-0.6,5.5-1.2c0.7-0.3,1.8-0.7,3.3-1.3S229.1,46.7,229.4,46.5
		z M210.5,43c0.3,0,1.1-1.3,2.4-3.8c1.3-2.5,2-4.1,2-4.6c0-0.6-0.3-1-1-1.2s-1.2,0-1.6,0.5c-0.3,0.4-0.6,1-1,1.8
		c-0.3,0.8-0.6,1.6-0.8,2.4c-0.2,0.8-0.3,1.6-0.4,2.3c-0.1,0.7-0.2,1.4-0.1,1.9C210.1,42.8,210.3,43,210.5,43z"/>
	<path class="st0" d="M256.8,44.5c0.7-0.6,1.3-0.9,1.9-0.8c0.5,0.1,0.8,0.6,0.8,1.5c0,0.3-0.1,0.6-0.2,0.9c-0.1,0.3-0.3,0.5-0.4,0.8
		c-0.2,0.2-0.4,0.5-0.7,0.7c-0.3,0.3-0.6,0.5-0.8,0.6s-0.5,0.3-0.8,0.6c-0.4,0.2-0.6,0.4-0.7,0.5h0c-0.2,0.4-0.7,0.7-1.4,1.2
		c-0.7,0.4-1.5,0.7-2.1,0.8c-0.7,0.4-1.3,0.7-1.8,0.9c-0.2,0.6-1.5,2-4,4c-1,0.8-1.8,1.5-2.4,2.1c-0.6,0.6-1.5,1.4-2.4,2.4
		c-1,1-1.7,2-2.2,3c-0.5,1-0.8,1.9-0.8,2.8c0,0.4-0.6,0.8-1.7,1.4c-0.7,0.4-1.2,0.6-1.6,0.6c-0.3,0-0.9-0.2-1.7-0.5
		c-1-0.5-1.7-1.2-2-2.1c-0.2-0.9-0.2-1.7,0-2.3c0.2-0.6,0.5-1.3,1.1-1.9s1.1-1.2,1.7-1.7c0.6-0.5,1.2-1,1.8-1.6
		c0.6-0.6,1.1-1.2,1.3-1.8c0.5-1.1,1-1.9,1.4-2.2c0.5-0.4,0.6-1,0.5-1.8c-0.1-0.8-0.4-1.3-1-1.6c-0.6-0.4-1.6-0.3-2.9,0.3
		c-2.1,0.8-3.9,0.7-5.4-0.4c-1.5-1.1-2.4-3-2.7-5.6c-0.2-1.3,0-3.1,0.5-5.3c0.5-2.3,0.7-3.9,0.7-4.9c0-1.3,0.2-2.7,0.6-4.2
		c0.5-1.5,1.2-2.5,2.1-3.2c1-0.7,2.1-0.8,3.3-0.2c1.1,0.6,1.8,1.5,1.9,2.8c0,0.7-0.1,1.6-0.5,2.9c-0.3,1-0.9,2.6-1.7,4.8
		c-0.8,2.2-1.4,3.9-1.7,5.1c-0.3,1.1-0.4,2-0.4,2.7c0,0.7,0.2,1.1,0.6,1.1c1.2,0,3-1.3,5.3-4c2.3-2.7,3.7-5,4.1-6.9
		c0.2-1,0.5-1.7,0.8-2c0.4-0.5,0.7-1.5,1.2-3c0.5-1.7,1.5-3.3,2.8-4.7c0.8-0.8,1.5-1.4,2-1.7c0.5-0.3,1.1-0.4,1.9-0.4
		c1.2,0,1.9,0.2,2.1,0.7c0.2,0.3,0.2,0.9,0,1.6c-0.1,0.8-0.3,1.5-0.6,2.1c-0.2,0.6-0.5,1.3-0.8,2.1s-0.4,1.3-0.5,1.7
		c-0.1,0.6-0.2,1-0.3,1.2c-0.1,0.2-0.3,0.6-0.7,1.2c-0.7,1-1.2,2.3-1.7,3.7c-0.5,1.4-0.9,3-1.3,4.8s-0.7,3.1-1,4
		c-0.5,1.7-0.7,2.6-0.6,2.7c0.1,0.1,1-0.2,2.7-1c1.7-0.8,3.5-1.6,5.2-2.5C255.5,45.2,256.5,44.7,256.8,44.5z"/>
</g>
</svg>
